<svg xmlns="http://www.w3.org/2000/svg" xmlns:xlink="http://www.w3.org/1999/xlink" viewBox="0 0 184.04 234.86"><defs><style>.cls-1{fill:url(#linear-gradient);}.cls-2,.cls-3{stroke-miterlimit:10;stroke-width:2px;}.cls-2{fill:url(#linear-gradient-2);stroke:url(#linear-gradient-3);}.cls-3{fill:url(#linear-gradient-4);stroke:url(#linear-gradient-5);}.cls-4{font-size:72px;fill:#fff;font-family:Gabriola;letter-spacing:0.03em;}</style><linearGradient id="linear-gradient" y1="64.8" x2="107.2" y2="64.8" gradientUnits="userSpaceOnUse"><stop offset="0" stop-color="#ded058"/><stop offset="0.12" stop-color="#cdb435"/><stop offset="0.28" stop-color="#b79108"/><stop offset="0.62" stop-color="#ebeb75"/><stop offset="0.69" stop-color="#e3e36a"/><stop offset="0.8" stop-color="#cfcd4e"/><stop offset="0.89" stop-color="#beba35"/><stop offset="1" stop-color="#7b7b1d"/></linearGradient><linearGradient id="linear-gradient-2" x1="99.18" y1="95" x2="133.29" y2="95" gradientUnits="userSpaceOnUse"><stop offset="0" stop-color="#ded058"/><stop offset="0.01" stop-color="#daca51"/><stop offset="0.08" stop-color="#cbb131"/><stop offset="0.15" stop-color="#c09f1a"/><stop offset="0.22" stop-color="#b9950d"/><stop offset="0.27" stop-color="#b79108"/><stop offset="0.42" stop-color="#cfb93e"/><stop offset="0.57" stop-color="#e5de71"/><stop offset="0.65" stop-color="#edec84"/><stop offset="0.7" stop-color="#e8e77b"/><stop offset="0.8" stop-color="#dbda62"/><stop offset="0.91" stop-color="#c6c43a"/><stop offset="1" stop-color="#b4b218"/></linearGradient><linearGradient id="linear-gradient-3" x1="98.18" y1="95" x2="134.29" y2="95" xlink:href="#linear-gradient-2"/><linearGradient id="linear-gradient-4" x1="139.7" y1="95.57" x2="183.02" y2="95.57" xlink:href="#linear-gradient-2"/><linearGradient id="linear-gradient-5" x1="138.59" y1="95.57" x2="184.04" y2="95.57" xlink:href="#linear-gradient-2"/></defs><title>logo2</title><g id="Layer_2" data-name="Layer 2"><g id="Layer_1-2" data-name="Layer 1"><path class="cls-1" d="M24.38,124.9s-50.9-16.82-5.61-75.82h0c7.68-.12-5.67,6.49,12.32,11.35h0C25.64,36.79,19.6,17.65,43.05,0h0c4.73,12.08,3.56,23.67,37.36,56.5h0C109.19,94.2,79.46,121.27,61,128c-14.32,5.18-2.68-3.11,3.29-7.1a12.91,12.91,0,0,0,5-6.45c2.55-7.29,3.82-20.51-22.87-16.37,0,0,0,0,0,0,11,2.41,7.31,23.36-6.86,15.14a10.71,10.71,0,0,1-4.59-5.3c-6.4-16.19,7.46-22.62,7.46-22.62S66,81.08,65.91,72.1,51.21,44.75,45.54,44.84c-4.32,4.55,8,15.26-5.31,24.44S16.48,82,15,99.14C17.87,113.62,16.77,109,24.38,124.9Z"/><path class="cls-2" d="M102.41,110.06c-.06.43-.09.84-.11,1.24s0,.79,0,1.18a14.74,14.74,0,0,0,.82,5.2,8.73,8.73,0,0,0,2.34,3.47,9.12,9.12,0,0,0,3.65,1.95,17.67,17.67,0,0,0,4.79.61,17,17,0,0,0,5-.74,12.38,12.38,0,0,0,4.21-2.22,10.73,10.73,0,0,0,2.88-3.66,11.33,11.33,0,0,0,1.08-5.07,10.74,10.74,0,0,0-.5-3.34,11,11,0,0,0-1.37-2.79,12.74,12.74,0,0,0-2.07-2.35,23.37,23.37,0,0,0-2.6-2c-.94-.64-1.93-1.24-3-1.83l-3.17-1.76c-1.13-.6-2.25-1.23-3.37-1.88A37.4,37.4,0,0,1,107.83,94,26.42,26.42,0,0,1,105,91.6a14.22,14.22,0,0,1-3.77-6.27,14.65,14.65,0,0,1-.55-4.16,18.47,18.47,0,0,1,.73-5.31,17.89,17.89,0,0,1,2-4.51,17.09,17.09,0,0,1,3.12-3.66,18.93,18.93,0,0,1,4-2.73,19.9,19.9,0,0,1,4.62-1.69,21.71,21.71,0,0,1,5-.58,22.62,22.62,0,0,1,2.52.15,25.11,25.11,0,0,1,2.69.44,23.9,23.9,0,0,1,2.56.71,12.07,12.07,0,0,1,2.16,1,5.66,5.66,0,0,1,1.51,1.18,2.06,2.06,0,0,1,.56,1.37c0,.52,0,1.17,0,1.94s0,1.67-.07,2.66-.07,2.08-.12,3.25-.12,2.42-.19,3.72l-2.71-.13c0-.65.08-1.26.08-1.86a13,13,0,0,0-.79-4.68A9.37,9.37,0,0,0,126.11,69a9.46,9.46,0,0,0-3.47-2,14.17,14.17,0,0,0-4.5-.68,12.65,12.65,0,0,0-4.6.82,10.93,10.93,0,0,0-3.69,2.28,10.6,10.6,0,0,0-2.45,3.48,10.88,10.88,0,0,0-.88,4.43,11.29,11.29,0,0,0,1.92,6.5,13,13,0,0,0,2.13,2.44,23.68,23.68,0,0,0,2.69,2.08,35.07,35.07,0,0,0,3.06,1.87L119.57,92c1.13.59,2.25,1.2,3.37,1.83s2.19,1.29,3.21,2A23.72,23.72,0,0,1,129,98.1a14.58,14.58,0,0,1,2.26,2.76,14.13,14.13,0,0,1,1.5,3.35,13.92,13.92,0,0,1,.55,4.05,19.55,19.55,0,0,1-1,6.53,16.65,16.65,0,0,1-6.58,8.51,22.29,22.29,0,0,1-4.55,2.34,24.31,24.31,0,0,1-4.72,1.27,27.11,27.11,0,0,1-4.38.39,32.94,32.94,0,0,1-5-.36,25.27,25.27,0,0,1-4.09-1,9.78,9.78,0,0,1-2.77-1.36,2.08,2.08,0,0,1-1-1.57q0-1.8.12-5.16t.39-8Z"/><path class="cls-3" d="M148.64,72.49a9,9,0,0,0-.17-1.93,2.51,2.51,0,0,0-1.95-2,8.39,8.39,0,0,0-2.15-.23c-.57,0-1.21,0-1.93.1s-1.53.14-2.44.25l-.3-2.5,4.89-.71c1.5-.2,2.91-.38,4.23-.53s2.54-.27,3.69-.34,2.23-.11,3.25-.11q4.25,0,8-.06l6.74-.14c2,0,3.58-.09,4.84-.13s2-.07,2.32-.07a2.74,2.74,0,0,1,1.89.58,2.24,2.24,0,0,1,.66,1.78c0,.33,0,1-.09,1.88s-.14,2-.24,3.21-.21,2.49-.34,3.83-.26,2.6-.4,3.76L176.6,79c0-.68.06-1.32.08-1.91s0-1.14,0-1.66a20.18,20.18,0,0,0-.27-3.67,4.57,4.57,0,0,0-1-2.21,3.7,3.7,0,0,0-2-1.11,15.34,15.34,0,0,0-3.14-.32l-4.67,0h-7.37c-.71,0-1.57,0-2.57.07,0,1.48-.08,3.15-.12,5s-.09,3.8-.15,5.9-.11,4.3-.17,6.63-.13,4.72-.2,7.2c2.31.1,4.35.18,6.15.22s3.44.07,5,.07c1.85,0,3.48-.06,4.9-.17a37,37,0,0,0,4.05-.55,6.39,6.39,0,0,1,.43,2.12,1.84,1.84,0,0,1-.49,1.31,3.49,3.49,0,0,1-1.37.88,9.29,9.29,0,0,1-2.15.48,24,24,0,0,1-2.81.15c-1.85,0-3.94-.11-6.28-.31s-4.83-.46-7.5-.77c0,1-.08,2.29-.14,3.75s-.11,3-.18,4.66-.16,3.33-.26,5.06-.2,3.38-.29,5-.21,3-.33,4.35-.23,2.39-.36,3.24c1.74-.25,3.43-.44,5.08-.55s3.14-.18,4.48-.18q2.82,0,5.28.15c1.64.1,3.26.15,4.87.15a8.22,8.22,0,0,0,2.84-.45,4.81,4.81,0,0,0,2.13-1.58,9.31,9.31,0,0,0,1.52-3.08,27.59,27.59,0,0,0,.95-4.91L183,112a44.83,44.83,0,0,1-.65,7.44,14.43,14.43,0,0,1-1.57,4.62,5.61,5.61,0,0,1-2.45,2.35,7.84,7.84,0,0,1-3.28.66,21.13,21.13,0,0,1-3.2-.27l-3.81-.6c-1.38-.23-2.87-.43-4.47-.61a46.45,46.45,0,0,0-5.17-.27,53.84,53.84,0,0,0-5.39.31,47.78,47.78,0,0,0-6,1l-.49-.06c.27-1.79.51-3.95.71-6.5s.39-5.32.55-8.33.3-6.2.41-9.55.19-6.73.27-10.14.12-6.79.14-10.12S148.64,75.48,148.64,72.49Z"/><text class="cls-4" transform="translate(3.88 186.27)">IGNITE</text></g></g></svg>