<svg xmlns="http://www.w3.org/2000/svg" xmlns:xlink="http://www.w3.org/1999/xlink" viewBox="0 0 184.04 187.21"><defs><style>.cls-1{fill:url(#linear-gradient);}.cls-2,.cls-3{stroke-miterlimit:10;stroke-width:2px;}.cls-2{fill:url(#linear-gradient-2);stroke:url(#linear-gradient-3);}.cls-3{fill:url(#linear-gradient-4);stroke:url(#linear-gradient-5);}.cls-4{fill:url(#linear-gradient-6);}.cls-5{fill:url(#linear-gradient-7);}.cls-6{fill:url(#linear-gradient-8);}.cls-7{fill:url(#linear-gradient-9);}.cls-8{fill:url(#linear-gradient-10);}.cls-9{fill:url(#linear-gradient-11);}</style><linearGradient id="linear-gradient" y1="64.8" x2="107.2" y2="64.8" gradientUnits="userSpaceOnUse"><stop offset="0" stop-color="#ded058"/><stop offset="0.12" stop-color="#cdb435"/><stop offset="0.28" stop-color="#b79108"/><stop offset="0.62" stop-color="#ebeb75"/><stop offset="0.69" stop-color="#e3e36a"/><stop offset="0.8" stop-color="#cfcd4e"/><stop offset="0.89" stop-color="#beba35"/><stop offset="1" stop-color="#7b7b1d"/></linearGradient><linearGradient id="linear-gradient-2" x1="99.18" y1="95" x2="133.29" y2="95" gradientUnits="userSpaceOnUse"><stop offset="0" stop-color="#ded058"/><stop offset="0.01" stop-color="#daca51"/><stop offset="0.08" stop-color="#cbb131"/><stop offset="0.15" stop-color="#c09f1a"/><stop offset="0.22" stop-color="#b9950d"/><stop offset="0.27" stop-color="#b79108"/><stop offset="0.42" stop-color="#cfb93e"/><stop offset="0.57" stop-color="#e5de71"/><stop offset="0.65" stop-color="#edec84"/><stop offset="0.7" stop-color="#e8e77b"/><stop offset="0.8" stop-color="#dbda62"/><stop offset="0.91" stop-color="#c6c43a"/><stop offset="1" stop-color="#b4b218"/></linearGradient><linearGradient id="linear-gradient-3" x1="98.18" y1="95" x2="134.29" y2="95" xlink:href="#linear-gradient-2"/><linearGradient id="linear-gradient-4" x1="139.7" y1="95.57" x2="183.02" y2="95.57" xlink:href="#linear-gradient-2"/><linearGradient id="linear-gradient-5" x1="138.59" y1="95.57" x2="184.04" y2="95.57" xlink:href="#linear-gradient-2"/><linearGradient id="linear-gradient-6" x1="4.46" y1="166.33" x2="15.06" y2="166.33" xlink:href="#linear-gradient-2"/><linearGradient id="linear-gradient-7" x1="23.97" y1="166.07" x2="55.43" y2="166.07" xlink:href="#linear-gradient-2"/><linearGradient id="linear-gradient-8" x1="60.3" y1="166.27" x2="96.51" y2="166.27" xlink:href="#linear-gradient-2"/><linearGradient id="linear-gradient-9" x1="100.42" y1="166.33" x2="111.02" y2="166.33" xlink:href="#linear-gradient-2"/><linearGradient id="linear-gradient-10" x1="117.85" y1="166.23" x2="149.05" y2="166.23" xlink:href="#linear-gradient-2"/><linearGradient id="linear-gradient-11" x1="149.91" y1="166.45" x2="178.26" y2="166.45" xlink:href="#linear-gradient-2"/></defs><title>logo</title><g id="Layer_2" data-name="Layer 2"><g id="Layer_1-2" data-name="Layer 1"><path class="cls-1" d="M24.38,124.9s-50.9-16.82-5.61-75.82h0c7.68-.12-5.67,6.49,12.32,11.35h0C25.64,36.79,19.6,17.65,43.05,0h0c4.73,12.08,3.56,23.67,37.36,56.5h0C109.19,94.2,79.46,121.27,61,128c-14.32,5.18-2.68-3.11,3.29-7.1a12.91,12.91,0,0,0,5-6.45c2.55-7.29,3.82-20.51-22.87-16.37,0,0,0,0,0,0,11,2.41,7.31,23.36-6.86,15.14a10.71,10.71,0,0,1-4.59-5.3c-6.4-16.19,7.46-22.62,7.46-22.62S66,81.08,65.91,72.1,51.21,44.75,45.54,44.84c-4.32,4.55,8,15.26-5.31,24.44S16.48,82,15,99.14C17.87,113.62,16.77,109,24.38,124.9Z"/><path class="cls-2" d="M102.41,110.06c-.06.43-.09.84-.11,1.24s0,.79,0,1.18a14.74,14.74,0,0,0,.82,5.2,8.73,8.73,0,0,0,2.34,3.47,9.12,9.12,0,0,0,3.65,1.95,17.67,17.67,0,0,0,4.79.61,17,17,0,0,0,5-.74,12.38,12.38,0,0,0,4.21-2.22,10.73,10.73,0,0,0,2.88-3.66,11.33,11.33,0,0,0,1.08-5.07,10.74,10.74,0,0,0-.5-3.34,11,11,0,0,0-1.37-2.79,12.74,12.74,0,0,0-2.07-2.35,23.37,23.37,0,0,0-2.6-2c-.94-.64-1.93-1.24-3-1.83l-3.17-1.76c-1.13-.6-2.25-1.23-3.37-1.88A37.4,37.4,0,0,1,107.83,94,26.42,26.42,0,0,1,105,91.6a14.22,14.22,0,0,1-3.77-6.27,14.65,14.65,0,0,1-.55-4.16,18.47,18.47,0,0,1,.73-5.31,17.89,17.89,0,0,1,2-4.51,17.09,17.09,0,0,1,3.12-3.66,18.93,18.93,0,0,1,4-2.73,19.9,19.9,0,0,1,4.62-1.69,21.71,21.71,0,0,1,5-.58,22.62,22.62,0,0,1,2.52.15,25.11,25.11,0,0,1,2.69.44,23.9,23.9,0,0,1,2.56.71,12.07,12.07,0,0,1,2.16,1,5.66,5.66,0,0,1,1.51,1.18,2.06,2.06,0,0,1,.56,1.37c0,.52,0,1.17,0,1.94s0,1.67-.07,2.66-.07,2.08-.12,3.25-.12,2.42-.19,3.72l-2.71-.13c0-.65.08-1.26.08-1.86a13,13,0,0,0-.79-4.68A9.37,9.37,0,0,0,126.11,69a9.46,9.46,0,0,0-3.47-2,14.17,14.17,0,0,0-4.5-.68,12.65,12.65,0,0,0-4.6.82,10.93,10.93,0,0,0-3.69,2.28,10.6,10.6,0,0,0-2.45,3.48,10.88,10.88,0,0,0-.88,4.43,11.29,11.29,0,0,0,1.92,6.5,13,13,0,0,0,2.13,2.44,23.68,23.68,0,0,0,2.69,2.08,35.07,35.07,0,0,0,3.06,1.87L119.57,92c1.13.59,2.25,1.2,3.37,1.83s2.19,1.29,3.21,2A23.72,23.72,0,0,1,129,98.1a14.58,14.58,0,0,1,2.26,2.76,14.13,14.13,0,0,1,1.5,3.35,13.92,13.92,0,0,1,.55,4.05,19.55,19.55,0,0,1-1,6.53,16.65,16.65,0,0,1-6.58,8.51,22.29,22.29,0,0,1-4.55,2.34,24.31,24.31,0,0,1-4.72,1.27,27.11,27.11,0,0,1-4.38.39,32.94,32.94,0,0,1-5-.36,25.27,25.27,0,0,1-4.09-1,9.78,9.78,0,0,1-2.77-1.36,2.08,2.08,0,0,1-1-1.57q0-1.8.12-5.16t.39-8Z"/><path class="cls-3" d="M148.64,72.49a9,9,0,0,0-.17-1.93,2.51,2.51,0,0,0-1.95-2,8.39,8.39,0,0,0-2.15-.23c-.57,0-1.21,0-1.93.1s-1.53.14-2.44.25l-.3-2.5,4.89-.71c1.5-.2,2.91-.38,4.23-.53s2.54-.27,3.69-.34,2.23-.11,3.25-.11q4.25,0,8-.06l6.74-.14c2,0,3.58-.09,4.84-.13s2-.07,2.32-.07a2.74,2.74,0,0,1,1.89.58,2.24,2.24,0,0,1,.66,1.78c0,.33,0,1-.09,1.88s-.14,2-.24,3.21-.21,2.49-.34,3.83-.26,2.6-.4,3.76L176.6,79c0-.68.06-1.32.08-1.91s0-1.14,0-1.66a20.18,20.18,0,0,0-.27-3.67,4.57,4.57,0,0,0-1-2.21,3.7,3.7,0,0,0-2-1.11,15.34,15.34,0,0,0-3.14-.32l-4.67,0h-7.37c-.71,0-1.57,0-2.57.07,0,1.48-.08,3.15-.12,5s-.09,3.8-.15,5.9-.11,4.3-.17,6.63-.13,4.72-.2,7.2c2.31.1,4.35.18,6.15.22s3.44.07,5,.07c1.85,0,3.48-.06,4.9-.17a37,37,0,0,0,4.05-.55,6.39,6.39,0,0,1,.43,2.12,1.84,1.84,0,0,1-.49,1.31,3.49,3.49,0,0,1-1.37.88,9.29,9.29,0,0,1-2.15.48,24,24,0,0,1-2.81.15c-1.85,0-3.94-.11-6.28-.31s-4.83-.46-7.5-.77c0,1-.08,2.29-.14,3.75s-.11,3-.18,4.66-.16,3.33-.26,5.06-.2,3.38-.29,5-.21,3-.33,4.35-.23,2.39-.36,3.24c1.74-.25,3.43-.44,5.08-.55s3.14-.18,4.48-.18q2.82,0,5.28.15c1.64.1,3.26.15,4.87.15a8.22,8.22,0,0,0,2.84-.45,4.81,4.81,0,0,0,2.13-1.58,9.31,9.31,0,0,0,1.52-3.08,27.59,27.59,0,0,0,.95-4.91L183,112a44.83,44.83,0,0,1-.65,7.44,14.43,14.43,0,0,1-1.57,4.62,5.61,5.61,0,0,1-2.45,2.35,7.84,7.84,0,0,1-3.28.66,21.13,21.13,0,0,1-3.2-.27l-3.81-.6c-1.38-.23-2.87-.43-4.47-.61a46.45,46.45,0,0,0-5.17-.27,53.84,53.84,0,0,0-5.39.31,47.78,47.78,0,0,0-6,1l-.49-.06c.27-1.79.51-3.95.71-6.5s.39-5.32.55-8.33.3-6.2.41-9.55.19-6.73.27-10.14.12-6.79.14-10.12S148.64,75.48,148.64,72.49Z"/><path class="cls-4" d="M10.44,151.43a11.2,11.2,0,0,0-.08-1.41,2.07,2.07,0,0,0-.36-1,1.64,1.64,0,0,0-.8-.53,4.39,4.39,0,0,0-1.38-.17c-.39,0-.86,0-1.43.06s-1.14.11-1.75.2l-.18-1.46c1.72-.44,3.2-.77,4.44-1a19.13,19.13,0,0,1,3.07-.32,4.06,4.06,0,0,1,1.78.31,1.87,1.87,0,0,1,.91.91,4,4,0,0,1,.35,1.49c0,.58.05,1.25.05,2,0,.26,0,1,0,2.07s-.07,2.55-.13,4.3-.11,3.77-.18,6-.15,4.69-.22,7.25-.16,5.21-.24,7.94-.16,5.43-.24,8.1l-4.17.53-.32,0c.14-3.37.27-6.55.38-9.56s.21-5.93.29-8.77.14-5.65.19-8.44S10.44,154.36,10.44,151.43Z"/><path class="cls-5" d="M44.57,144.93a22.81,22.81,0,0,1,4.37.4,17.78,17.78,0,0,1,3.43,1,8.56,8.56,0,0,1,2.25,1.29,1.82,1.82,0,0,1,.81,1.26c0,.81,0,1.86-.1,3.15s-.14,2.85-.23,4.68l-1.53,0c0-.16,0-.32,0-.47s0-.32,0-.48a11.79,11.79,0,0,0-.26-2.33,5.56,5.56,0,0,0-.93-2.08,8,8,0,0,0-1.72-1.76,10.2,10.2,0,0,0-2.18-1.27,11.39,11.39,0,0,0-2.54-.78,14.87,14.87,0,0,0-2.77-.25,12.7,12.7,0,0,0-4.47.75,11.81,11.81,0,0,0-3.58,2.07,13.8,13.8,0,0,0-2.75,3.13,19.55,19.55,0,0,0-1.92,3.92,23.78,23.78,0,0,0-1.13,4.45,29.75,29.75,0,0,0-.37,4.72,30.08,30.08,0,0,0,.54,5.95A20.36,20.36,0,0,0,31.05,177a14.51,14.51,0,0,0,2.35,3.58,13.2,13.2,0,0,0,3,2.48,13,13,0,0,0,3.52,1.44,15.94,15.94,0,0,0,3.86.47,14.35,14.35,0,0,0,2.67-.22,6.29,6.29,0,0,0,1.77-.6,2.78,2.78,0,0,0,1-.9,2.52,2.52,0,0,0,.42-1.1c.09-.7.15-1.48.18-2.33s0-1.68,0-2.5v-1.58a8.85,8.85,0,0,0-.18-2,1.86,1.86,0,0,0-.67-1.09,2.59,2.59,0,0,0-1.34-.44c-.58-.06-1.32-.08-2.22-.08H43.36l-.13-1.73a4.7,4.7,0,0,0,.51,0H44.9c.78,0,1.6,0,2.46,0l2.44,0,2,0,1,0a1.76,1.76,0,0,1,1.37.47,2.55,2.55,0,0,1,.41,1.64c0,.48,0,1.08,0,1.81s-.07,1.54-.1,2.43-.08,1.86-.12,2.89-.09,2.09-.13,3.17a9.42,9.42,0,0,1-.08,1.06,2.32,2.32,0,0,1-.24.73,1.71,1.71,0,0,1-.45.52,3.91,3.91,0,0,1-.72.43,9.32,9.32,0,0,1-1.44.57,20.79,20.79,0,0,1-2.17.58c-.83.18-1.73.33-2.72.45a25.34,25.34,0,0,1-3.07.18,28.54,28.54,0,0,1-4.46-.37,20.63,20.63,0,0,1-4.42-1.25,17.86,17.86,0,0,1-4-2.33A14.3,14.3,0,0,1,27,179.64a18.47,18.47,0,0,1-2.24-5.12,25.31,25.31,0,0,1-.82-6.81,27.11,27.11,0,0,1,.57-5.5,25.35,25.35,0,0,1,1.71-5.29,22.94,22.94,0,0,1,2.86-4.72,18.8,18.8,0,0,1,4-3.81,19.18,19.18,0,0,1,5.15-2.54A20.64,20.64,0,0,1,44.57,144.93Z"/><path class="cls-6" d="M72,148.87c.54,1,1.15,2,1.84,3.21s1.41,2.42,2.19,3.72,1.58,2.66,2.41,4,1.69,2.8,2.55,4.21l2.56,4.16q1.26,2.06,2.45,3.95t2.25,3.54c.71,1.1,1.35,2.09,1.93,2.95,0-3.14,0-6,0-8.58s0-4.9.07-7,.07-3.92.12-5.53.11-3,.18-4.24.17-2.24.27-3.09a19.26,19.26,0,0,1,.34-2.1,3.71,3.71,0,0,1,.45-1.17,2.57,2.57,0,0,1,.67-.75,2.14,2.14,0,0,1,.82-.39,3.61,3.61,0,0,1,.94-.12,6.56,6.56,0,0,1,2.45.51v.18A11.5,11.5,0,0,0,95,149.57,34.33,34.33,0,0,0,94,153.9c-.3,1.59-.53,3.26-.71,5s-.33,3.5-.44,5.23-.18,3.39-.23,5-.1,3-.13,4.27c0,1.1,0,2.17-.07,3.22s0,2.1-.07,3.15,0,2.11,0,3.18,0,2.18,0,3.31l-2.14.29-.32,0c-.35-.49-.8-1.15-1.34-2s-1.16-1.77-1.84-2.84-1.42-2.23-2.21-3.49l-2.46-4-2.59-4.2-2.61-4.25q-1.29-2.12-2.51-4.12c-.82-1.33-1.58-2.59-2.3-3.77l-2-3.22-1.49-2.48c0,2.59-.06,5.11-.12,7.57s-.12,4.81-.2,7.07-.17,4.41-.27,6.44-.21,3.93-.33,5.67c-.08,1.23-.16,2.28-.25,3.15s-.2,1.59-.32,2.17a4.93,4.93,0,0,1-.46,1.38,1.93,1.93,0,0,1-.67.76,2.37,2.37,0,0,1-1,.33,10.33,10.33,0,0,1-1.34.07h-.82l-.55,0-.24-.17a28.27,28.27,0,0,0,1.34-3.82c.39-1.4.74-2.89,1-4.47s.55-3.21.77-4.89.39-3.36.53-5.05.26-3.35.34-5,.16-3.19.21-4.67.07-2.85.08-4.11,0-2.37,0-3.31a6.82,6.82,0,0,0-.11-1.29,2,2,0,0,0-.42-.88,1.77,1.77,0,0,0-.84-.5,4.72,4.72,0,0,0-1.37-.16c-.4,0-.85,0-1.35.07s-1.06.12-1.69.21l-.19-1.54,2.67-.6c.79-.18,1.51-.32,2.16-.44s1.23-.21,1.75-.27a10.59,10.59,0,0,1,1.41-.1,3.57,3.57,0,0,1,1.14.16,2.42,2.42,0,0,1,.89.51,4.3,4.3,0,0,1,.81.94A14.93,14.93,0,0,1,72,148.87Z"/><path class="cls-7" d="M106.4,151.43a11.2,11.2,0,0,0-.08-1.41,2.07,2.07,0,0,0-.36-1,1.64,1.64,0,0,0-.8-.53,4.39,4.39,0,0,0-1.38-.17c-.39,0-.86,0-1.43.06s-1.14.11-1.75.2l-.18-1.46c1.72-.44,3.2-.77,4.44-1a19.13,19.13,0,0,1,3.07-.32,4.06,4.06,0,0,1,1.78.31,1.87,1.87,0,0,1,.91.91,4,4,0,0,1,.35,1.49c0,.58,0,1.25,0,2,0,.26,0,1,0,2.07s-.07,2.55-.13,4.3-.11,3.77-.18,6-.15,4.69-.22,7.25-.16,5.21-.24,7.94-.16,5.43-.24,8.1l-4.17.53-.32,0c.14-3.37.27-6.55.38-9.56s.21-5.93.29-8.77.14-5.65.19-8.44S106.4,154.36,106.4,151.43Z"/><path class="cls-8" d="M119.65,156.23l-1.74,0q-.06-2.13-.06-3.78a24.33,24.33,0,0,1,.16-2.93,5.07,5.07,0,0,1,.66-2,2.89,2.89,0,0,1,1.46-1.16,7.33,7.33,0,0,1,2.54-.37c.67,0,1.43,0,2.3.06l2.74.1,3,.11c1,0,2,.05,2.94.05h4.22c1.22,0,2.3,0,3.25,0l2.5-.05c.71,0,1.36-.06,2-.1s1.14-.11,1.65-.17l1.55-.24a4.36,4.36,0,0,1,.3,1.39,2,2,0,0,1-1,1.78,5.5,5.5,0,0,1-2.89.61c-1.21,0-2.63-.07-4.27-.22s-3.47-.29-5.52-.43c0,1.73-.08,3.59-.14,5.55s-.1,4-.16,6.11-.12,4.26-.19,6.45-.13,4.4-.2,6.6-.14,4.37-.2,6.53-.13,4.24-.19,6.25l-4.16.53-.32,0q.14-3.36.26-6.45c.09-2,.16-4.07.23-6s.14-4,.2-5.93.1-4,.14-6.1.06-4.25.08-6.51,0-4.65,0-7.2l-2-.06c-.69,0-1.39,0-2.11,0s-1.38,0-2,0a7.49,7.49,0,0,0-1.71.25,4.25,4.25,0,0,0-1.39.66,3.54,3.54,0,0,0-1,1.26,7.17,7.17,0,0,0-.64,2.09,18,18,0,0,0-.22,3.09Z"/><path class="cls-9" d="M155.76,151.35a6.52,6.52,0,0,0-.11-1.27,1.63,1.63,0,0,0-1.28-1.33,5.39,5.39,0,0,0-1.4-.15,12,12,0,0,0-1.27.07c-.47,0-1,.09-1.6.16l-.19-1.63c1.15-.18,2.21-.33,3.2-.47l2.77-.35c.86-.1,1.66-.17,2.41-.22s1.46-.07,2.13-.07c1.85,0,3.61,0,5.27,0l4.41-.09,3.16-.09,1.52,0a1.84,1.84,0,0,1,1.24.37,1.49,1.49,0,0,1,.43,1.17q0,.31-.06,1.23c0,.61-.09,1.31-.16,2.1s-.13,1.63-.22,2.51-.17,1.7-.26,2.46l-1.69,0c0-.45,0-.86.05-1.25s0-.75,0-1.09a14.13,14.13,0,0,0-.17-2.4,3,3,0,0,0-.65-1.45,2.38,2.38,0,0,0-1.27-.72,9.47,9.47,0,0,0-2.06-.21l-3,0H162.1c-.46,0-1,0-1.68.05,0,1,0,2.06-.08,3.26s-.06,2.48-.09,3.86-.08,2.81-.12,4.34-.08,3.09-.13,4.71q2.26.1,4,.15c1.18,0,2.26,0,3.26,0,1.2,0,2.27,0,3.2-.11a25.34,25.34,0,0,0,2.65-.36,4,4,0,0,1,.28,1.39,1.25,1.25,0,0,1-.31.86,2.4,2.4,0,0,1-.9.57,6.16,6.16,0,0,1-1.41.31,14.68,14.68,0,0,1-1.84.1c-1.21,0-2.58-.07-4.11-.2s-3.16-.3-4.91-.5c0,.68-.05,1.5-.09,2.45s-.07,2-.12,3.05-.1,2.18-.17,3.31-.13,2.22-.19,3.26-.14,2-.21,2.84-.16,1.57-.24,2.12c1.14-.16,2.24-.28,3.32-.36s2.06-.11,2.94-.11q1.85,0,3.45.09c1.07.07,2.14.1,3.19.1a5.55,5.55,0,0,0,1.86-.29,3.08,3.08,0,0,0,1.39-1,6.28,6.28,0,0,0,1-2,18.24,18.24,0,0,0,.62-3.22l1.58.09a28.35,28.35,0,0,1-.42,4.87,9.22,9.22,0,0,1-1,3,3.65,3.65,0,0,1-1.61,1.54,5,5,0,0,1-2.14.43,14.77,14.77,0,0,1-2.09-.17l-2.5-.4c-.9-.15-1.88-.28-2.92-.39a29.93,29.93,0,0,0-3.39-.18c-1.06,0-2.24.07-3.52.2a32,32,0,0,0-3.95.68l-.32,0c.18-1.17.34-2.59.47-4.25s.26-3.48.36-5.46.19-4.06.26-6.25.13-4.4.18-6.63.08-4.44.1-6.63S155.76,153.3,155.76,151.35Z"/></g></g></svg>